# xmcd
#
# Track frame offsets:
#	150
#	12685
#	28992
#	42105
#	56650
#	72087
#	84557
#	98382
#	110840
#	119957
#	136052
#	145682
#	156272
#	169102
#	178315
#	194890
#
# Disc length: 2756 seconds
#
# Revision: 0
# Processed by: cddbd v1.5.1PL0 Copyright (c) Steve Scherf et al.
# Submitted via: audiograbber 1.83.01
#
DISCID=ef0ac210
DTITLE=Mac Curtis - Rockabilly Ready
DYEAR=1900
DGENRE=Rock and Roll
TTITLE0=Rockabilly Ready
TTITLE1=The Love Doctor
TTITLE2=Show Me The Money
TTITLE3=Tell Me What'll I Do 
TTITLE4=Old Rock'n'rollers Like Me
TTITLE5=Miss Linda's Still Fine 
TTITLE6=One Foot Loose
TTITLE7=Bluesman
TTITLE8=Let's Go Downtown
TTITLE9=Keep On Rockin'
TTITLE10=Hey Hey Little Lady
TTITLE11=Mesmerized
TTITLE12=Are You Ready To Rumble
TTITLE13=Side Wind
TTITLE14=Little Mama Have Mercy
TTITLE15=Frantic
EXTD=
EXTT0=
EXTT1=
EXTT2=
EXTT3=
EXTT4=
EXTT5=
EXTT6=
EXTT7=
EXTT8=
EXTT9=
EXTT10=
EXTT11=
EXTT12=
EXTT13=
EXTT14=
EXTT15=
PLAYORDER=
